<svg width="70" height="70" viewBox="0 0 70 70" fill="none" xmlns="http://www.w3.org/2000/svg">
<rect width="70" height="70" rx="25" fill="#00CE22"/>
<g clip-path="url(#clip0_16_13)">
<path fill-rule="evenodd" clip-rule="evenodd" d="M30.6625 15C35.5499 15.0001 39.512 18.8745 39.5121 23.6522C39.5121 23.9186 39.4997 24.1839 39.4824 24.4482H46.9366C54.1871 24.4482 57.0342 33.6407 51.0014 37.5723L43.1131 42.7122C41.415 43.8193 41.8805 46.3743 43.8654 46.84C44.5143 46.9921 45.1997 46.8658 45.7475 46.4934L50.3242 43.1927C50.4979 43.0675 50.7074 43 50.9225 43H63.4922C63.9872 43 64.1886 43.6281 63.7838 43.909L50.4783 53.1397C47.99 54.8319 44.8796 55.4048 41.9321 54.7133C32.9186 52.5986 30.8061 41.0015 38.5185 35.9749L43.7818 32.5457H35.7048H30.5358C29.0515 32.5457 27.6504 32.1926 26.4171 31.5691C27.7314 32.4535 30.9805 33.4377 33.7216 33.6251C33.9658 33.6251 34.3625 33.8385 33.8901 34.3183L17.2952 50.7067C17.105 50.8945 16.847 51 16.578 51H6.5079C6.05626 51 5.83014 50.4613 6.14959 50.1463L25.5219 31.0472C23.1349 29.4709 21.5652 26.8013 21.5649 23.7735C21.5649 18.9287 25.5825 15 30.5385 15H30.6625ZM30.8419 21.7491C29.6982 21.7491 28.771 22.3533 28.771 23.0987C28.7715 23.7132 29.4024 24.2301 30.2648 24.3929C30.3487 24.4284 30.4413 24.4482 30.5385 24.4482H31.1533C31.1544 24.4422 31.1535 24.4358 31.1546 24.4298C32.1495 24.3315 32.9122 23.7744 32.9127 23.0987C32.9127 22.3533 31.9855 21.7491 30.8419 21.7491Z" fill="white"/>
</g>
<defs>
<clipPath id="clip0_16_13">
<rect width="58" height="40" fill="white" transform="translate(6.00002 15)"/>
</clipPath>
</defs>
</svg>
