<svg width="307" height="70" viewBox="0 0 307 70" fill="none" xmlns="http://www.w3.org/2000/svg">
<rect width="70" height="70" rx="25" fill="#00CE22"/>
<g clip-path="url(#clip0_17_14)">
<path fill-rule="evenodd" clip-rule="evenodd" d="M30.6625 15C35.5499 15.0002 39.512 18.8746 39.5121 23.6522C39.5121 23.9187 39.4997 24.184 39.4824 24.4483H46.9366C54.1871 24.4483 57.0342 33.6407 51.0014 37.5723L43.1131 42.7122C41.415 43.8193 41.8805 46.3743 43.8654 46.84C44.5143 46.9921 45.1997 46.8658 45.7475 46.4934L50.3242 43.1927C50.4979 43.0675 50.7074 43 50.9225 43H63.4922C63.9872 43 64.1886 43.6281 63.7838 43.909L50.4783 53.1397C47.99 54.8319 44.8796 55.4048 41.9321 54.7133C32.9186 52.5986 30.8061 41.0015 38.5185 35.9749L43.7818 32.5457H35.7048H30.5358C29.0515 32.5457 27.6504 32.1926 26.4171 31.5691C27.7314 32.4535 30.9805 33.4377 33.7216 33.6251C33.9658 33.6251 34.3625 33.8385 33.8901 34.3183L17.2952 50.7067C17.105 50.8945 16.847 51 16.578 51H6.5079C6.05626 51 5.83014 50.4613 6.14959 50.1463L25.5219 31.0472C23.1349 29.4709 21.5652 26.8013 21.5649 23.7735C21.5649 18.9288 25.5825 15 30.5385 15H30.6625ZM30.8419 21.7491C29.6982 21.7491 28.771 22.3534 28.771 23.0987C28.7715 23.7132 29.4024 24.2301 30.2648 24.3929C30.3487 24.4285 30.4413 24.4483 30.5385 24.4483H31.1533C31.1544 24.4423 31.1535 24.4359 31.1546 24.4298C32.1495 24.3315 32.9122 23.7744 32.9127 23.0987C32.9127 22.3534 31.9855 21.7491 30.8419 21.7491Z" fill="white"/>
</g>
<path d="M84.92 52V27.04H91.208V31.792C91.624 30 92.472 28.64 93.752 27.712C95.032 26.752 96.76 26.336 98.936 26.464V32.56H98.024C96.168 32.56 94.6 33.152 93.32 34.336C92.04 35.52 91.4 37.152 91.4 39.232V52H84.92ZM112.209 52.624C109.649 52.624 107.361 52.032 105.345 50.848C103.329 49.664 101.745 48.096 100.593 46.144C99.4731 44.16 98.9131 41.968 98.9131 39.568C98.9131 37.168 99.4731 34.976 100.593 32.992C101.745 31.008 103.329 29.424 105.345 28.24C107.361 27.056 109.649 26.464 112.209 26.464C114.801 26.464 117.089 27.056 119.073 28.24C121.089 29.424 122.657 31.008 123.777 32.992C124.929 34.976 125.505 37.168 125.505 39.568C125.505 41.968 124.929 44.16 123.777 46.144C122.657 48.096 121.089 49.664 119.073 50.848C117.089 52.032 114.801 52.624 112.209 52.624ZM112.209 46.72C113.585 46.72 114.785 46.4 115.809 45.76C116.833 45.088 117.617 44.208 118.161 43.12C118.737 42.032 119.025 40.848 119.025 39.568C119.025 38.256 118.737 37.056 118.161 35.968C117.617 34.88 116.833 34.016 115.809 33.376C114.785 32.704 113.585 32.368 112.209 32.368C110.833 32.368 109.633 32.704 108.609 33.376C107.585 34.016 106.785 34.88 106.209 35.968C105.665 37.056 105.393 38.256 105.393 39.568C105.393 40.848 105.665 42.032 106.209 43.12C106.785 44.208 107.585 45.088 108.609 45.76C109.633 46.4 110.833 46.72 112.209 46.72ZM132.668 52L124.892 27.04H132.476L135.692 41.2C135.82 41.808 135.948 42.448 136.076 43.12C136.236 43.76 136.364 44.384 136.46 44.992C136.652 43.712 136.924 42.432 137.276 41.152L140.924 27.04H148.364L152.252 41.152C152.604 42.432 152.876 43.712 153.068 44.992C153.164 44.384 153.276 43.76 153.404 43.12C153.564 42.448 153.708 41.808 153.836 41.2L157.292 27.04H164.348L156.572 52H149.564L145.484 37.792C145.1 36.544 144.812 35.296 144.62 34.048C144.524 34.656 144.412 35.28 144.284 35.92C144.156 36.56 144.012 37.184 143.852 37.792L140.108 52H132.668ZM165.639 52V16.96H172.119V30.496C173.463 27.808 175.975 26.464 179.655 26.464C181.447 26.464 183.063 26.88 184.503 27.712C185.943 28.544 187.079 29.728 187.911 31.264C188.743 32.8 189.159 34.624 189.159 36.736V52H182.679V38.32C182.679 36.144 182.183 34.576 181.191 33.616C180.199 32.624 178.903 32.128 177.303 32.128C175.927 32.128 174.711 32.624 173.655 33.616C172.631 34.576 172.119 36.144 172.119 38.32V52H165.639ZM205.115 52.624C202.555 52.624 200.267 52.032 198.251 50.848C196.235 49.664 194.651 48.096 193.499 46.144C192.379 44.16 191.819 41.968 191.819 39.568C191.819 37.168 192.379 34.976 193.499 32.992C194.651 31.008 196.235 29.424 198.251 28.24C200.267 27.056 202.555 26.464 205.115 26.464C207.707 26.464 209.995 27.056 211.979 28.24C213.995 29.424 215.563 31.008 216.683 32.992C217.835 34.976 218.411 37.168 218.411 39.568C218.411 41.968 217.835 44.16 216.683 46.144C215.563 48.096 213.995 49.664 211.979 50.848C209.995 52.032 207.707 52.624 205.115 52.624ZM205.115 46.72C206.491 46.72 207.691 46.4 208.715 45.76C209.739 45.088 210.523 44.208 211.067 43.12C211.643 42.032 211.931 40.848 211.931 39.568C211.931 38.256 211.643 37.056 211.067 35.968C210.523 34.88 209.739 34.016 208.715 33.376C207.691 32.704 206.491 32.368 205.115 32.368C203.739 32.368 202.539 32.704 201.515 33.376C200.491 34.016 199.691 34.88 199.115 35.968C198.571 37.056 198.299 38.256 198.299 39.568C198.299 40.848 198.571 42.032 199.115 43.12C199.691 44.208 200.491 45.088 201.515 45.76C202.539 46.4 203.739 46.72 205.115 46.72ZM230.543 52.576C228.751 52.576 227.135 52.16 225.695 51.328C224.255 50.496 223.119 49.312 222.287 47.776C221.455 46.208 221.039 44.384 221.039 42.304V27.04H227.519V40.72C227.519 42.864 227.951 44.432 228.815 45.424C229.679 46.416 230.911 46.912 232.511 46.912C233.887 46.912 235.087 46.416 236.111 45.424C237.167 44.432 237.695 42.864 237.695 40.72V27.04H244.175V52H237.887V48.256C237.279 49.696 236.383 50.784 235.199 51.52C234.047 52.224 232.495 52.576 230.543 52.576ZM256.542 52.624C252.35 52.624 248.894 51.168 246.174 48.256L250.542 44.272C252.366 46.32 254.318 47.344 256.398 47.344C257.518 47.344 258.366 47.104 258.942 46.624C259.55 46.112 259.854 45.488 259.854 44.752C259.854 44.304 259.742 43.92 259.518 43.6C259.326 43.28 258.894 42.976 258.222 42.688C257.582 42.4 256.606 42.112 255.294 41.824C253.054 41.28 251.39 40.608 250.302 39.808C249.214 39.008 248.494 38.112 248.142 37.12C247.79 36.128 247.614 35.104 247.614 34.048C247.614 31.872 248.43 30.064 250.062 28.624C251.726 27.152 254.014 26.416 256.926 26.416C258.942 26.416 260.67 26.72 262.11 27.328C263.55 27.936 264.91 29.072 266.19 30.736L261.486 34.336C260.878 33.376 260.19 32.688 259.422 32.272C258.686 31.856 257.902 31.648 257.07 31.648C256.174 31.648 255.422 31.824 254.814 32.176C254.238 32.528 253.95 33.088 253.95 33.856C253.95 34.272 254.142 34.688 254.526 35.104C254.91 35.488 255.838 35.872 257.31 36.256C259.742 36.864 261.598 37.584 262.878 38.416C264.158 39.216 265.038 40.128 265.518 41.152C265.998 42.176 266.238 43.312 266.238 44.56C266.238 46.096 265.806 47.472 264.942 48.688C264.11 49.904 262.958 50.864 261.486 51.568C260.046 52.272 258.398 52.624 256.542 52.624ZM280.716 52.624C278.156 52.624 275.9 52.032 273.948 50.848C271.996 49.664 270.476 48.096 269.388 46.144C268.332 44.16 267.804 41.968 267.804 39.568C267.804 37.168 268.364 34.976 269.484 32.992C270.604 30.976 272.124 29.376 274.044 28.192C275.996 27.008 278.22 26.416 280.716 26.416C283.212 26.416 285.404 27.008 287.292 28.192C289.212 29.376 290.7 30.976 291.756 32.992C292.844 34.976 293.388 37.168 293.388 39.568C293.388 39.92 293.372 40.288 293.34 40.672C293.308 41.056 293.26 41.456 293.196 41.872H274.524C274.876 43.344 275.58 44.544 276.636 45.472C277.724 46.4 279.084 46.864 280.716 46.864C282.124 46.864 283.34 46.544 284.364 45.904C285.42 45.264 286.236 44.464 286.812 43.504L291.852 47.296C290.86 48.864 289.372 50.144 287.388 51.136C285.404 52.128 283.18 52.624 280.716 52.624ZM280.62 31.984C279.084 31.984 277.772 32.448 276.684 33.376C275.596 34.304 274.876 35.52 274.524 37.024H286.86C286.508 35.648 285.772 34.464 284.652 33.472C283.564 32.48 282.22 31.984 280.62 31.984Z" fill="#002A3D"/>
<defs>
<clipPath id="clip0_17_14">
<rect width="58" height="40" fill="white" transform="translate(6.00002 15)"/>
</clipPath>
</defs>
</svg>
